<svg width="31" height="31" viewBox="0 0 31 31" fill="none" xmlns="http://www.w3.org/2000/svg">
<path d="M15.0356 30.021C23.2356 30.021 30.0356 23.221 30.0356 15.021C30.0356 6.821 23.2356 0.0209961 15.0356 0.0209961C6.83564 0.0209961 0.0356445 6.821 0.0356445 15.021C0.0356445 23.221 6.83564 30.021 15.0356 30.021ZM15.0356 28.021C7.73564 28.021 1.93565 22.221 1.93565 15.021C1.93565 7.821 7.73565 1.92099 14.9356 1.92099C22.1356 1.92099 28.0356 7.721 28.0356 15.021C28.0356 22.221 22.2356 28.021 15.0356 28.021ZM11.7356 22.321C12.0356 22.621 12.6356 22.621 13.0356 22.321L19.5356 16.121C20.2356 15.521 20.2356 14.521 19.5356 13.921L13.0356 7.72099C12.6356 7.32099 12.1356 7.32099 11.8356 7.72099C11.4356 8.02099 11.4356 8.62099 11.8356 8.92099L18.2356 15.021L11.8356 21.121C11.3356 21.421 11.3356 22.021 11.7356 22.321Z" fill="#1D1D1F"/>
</svg>
